<svg id="my-svg" width="100%" xmlns="http://www.w3.org/2000/svg" xmlns:xlink="http://www.w3.org/1999/xlink" viewBox="0 0 1616 1324" style="max-width: 1616px; background-color: white;" role="graphics-document document" aria-roledescription="gantt"><style>#my-svg{font-family:"trebuchet ms",verdana,arial,sans-serif;font-size:16px;fill:#000000;}@keyframes edge-animation-frame{from{stroke-dashoffset:0;}}@keyframes dash{to{stroke-dashoffset:0;}}#my-svg .edge-animation-slow{stroke-dasharray:9,5!important;stroke-dashoffset:900;animation:dash 50s linear infinite;stroke-linecap:round;}#my-svg .edge-animation-fast{stroke-dasharray:9,5!important;stroke-dashoffset:900;animation:dash 20s linear infinite;stroke-linecap:round;}#my-svg .error-icon{fill:#552222;}#my-svg .error-text{fill:#552222;stroke:#552222;}#my-svg .edge-thickness-normal{stroke-width:1px;}#my-svg .edge-thickness-thick{stroke-width:3.5px;}#my-svg .edge-pattern-solid{stroke-dasharray:0;}#my-svg .edge-thickness-invisible{stroke-width:0;fill:none;}#my-svg .edge-pattern-dashed{stroke-dasharray:3;}#my-svg .edge-pattern-dotted{stroke-dasharray:2;}#my-svg .marker{fill:#666;stroke:#666;}#my-svg .marker.cross{stroke:#666;}#my-svg svg{font-family:"trebuchet ms",verdana,arial,sans-serif;font-size:16px;}#my-svg p{margin:0;}#my-svg .mermaid-main-font{font-family:"trebuchet ms",verdana,arial,sans-serif;}#my-svg .exclude-range{fill:#eeeeee;}#my-svg .section{stroke:none;opacity:0.2;}#my-svg .section0{fill:hsl(0, 0%, 73.9215686275%);}#my-svg .section2{fill:hsl(0, 0%, 73.9215686275%);}#my-svg .section1,#my-svg .section3{fill:white;opacity:0.2;}#my-svg .sectionTitle0{fill:#333;}#my-svg .sectionTitle1{fill:#333;}#my-svg .sectionTitle2{fill:#333;}#my-svg .sectionTitle3{fill:#333;}#my-svg .sectionTitle{text-anchor:start;font-family:"trebuchet ms",verdana,arial,sans-serif;}#my-svg .grid .tick{stroke:hsl(0, 0%, 90%);opacity:0.8;shape-rendering:crispEdges;}#my-svg .grid .tick text{font-family:"trebuchet ms",verdana,arial,sans-serif;fill:#000000;}#my-svg .grid path{stroke-width:0;}#my-svg .today{fill:none;stroke:#d42;stroke-width:2px;}#my-svg .task{stroke-width:2;}#my-svg .taskText{text-anchor:middle;font-family:"trebuchet ms",verdana,arial,sans-serif;}#my-svg .taskTextOutsideRight{fill:#333;text-anchor:start;font-family:"trebuchet ms",verdana,arial,sans-serif;}#my-svg .taskTextOutsideLeft{fill:#333;text-anchor:end;}#my-svg .task.clickable{cursor:pointer;}#my-svg .taskText.clickable{cursor:pointer;fill:#003163!important;font-weight:bold;}#my-svg .taskTextOutsideLeft.clickable{cursor:pointer;fill:#003163!important;font-weight:bold;}#my-svg .taskTextOutsideRight.clickable{cursor:pointer;fill:#003163!important;font-weight:bold;}#my-svg .taskText0,#my-svg .taskText1,#my-svg .taskText2,#my-svg .taskText3{fill:white;}#my-svg .task0,#my-svg .task1,#my-svg .task2,#my-svg .task3{fill:#707070;stroke:hsl(0, 0%, 33.9215686275%);}#my-svg .taskTextOutside0,#my-svg .taskTextOutside2{fill:#333;}#my-svg .taskTextOutside1,#my-svg .taskTextOutside3{fill:#333;}#my-svg .active0,#my-svg .active1,#my-svg .active2,#my-svg .active3{fill:#eee;stroke:hsl(0, 0%, 33.9215686275%);}#my-svg .activeText0,#my-svg .activeText1,#my-svg .activeText2,#my-svg .activeText3{fill:#333!important;}#my-svg .done0,#my-svg .done1,#my-svg .done2,#my-svg .done3{stroke:#666;fill:#bbb;stroke-width:2;}#my-svg .doneText0,#my-svg .doneText1,#my-svg .doneText2,#my-svg .doneText3{fill:#333!important;}#my-svg .crit0,#my-svg .crit1,#my-svg .crit2,#my-svg .crit3{stroke:hsl(10.9090909091, 73.3333333333%, 40%);fill:#d42;stroke-width:2;}#my-svg .activeCrit0,#my-svg .activeCrit1,#my-svg .activeCrit2,#my-svg .activeCrit3{stroke:hsl(10.9090909091, 73.3333333333%, 40%);fill:#eee;stroke-width:2;}#my-svg .doneCrit0,#my-svg .doneCrit1,#my-svg .doneCrit2,#my-svg .doneCrit3{stroke:hsl(10.9090909091, 73.3333333333%, 40%);fill:#bbb;stroke-width:2;cursor:pointer;shape-rendering:crispEdges;}#my-svg .milestone{transform:rotate(45deg) scale(0.8,0.8);}#my-svg .milestoneText{font-style:italic;}#my-svg .doneCritText0,#my-svg .doneCritText1,#my-svg .doneCritText2,#my-svg .doneCritText3{fill:#333!important;}#my-svg .vert{stroke:#d42;}#my-svg .vertText{font-size:15px;text-anchor:middle;fill:#d42!important;}#my-svg .activeCritText0,#my-svg .activeCritText1,#my-svg .activeCritText2,#my-svg .activeCritText3{fill:#333!important;}#my-svg .titleText{text-anchor:middle;font-size:18px;fill:#333;font-family:"trebuchet ms",verdana,arial,sans-serif;}#my-svg :root{--mermaid-font-family:"trebuchet ms",verdana,arial,sans-serif;}</style><g/><g class="grid" transform="translate(75, 1274)" fill="none" font-size="10" font-family="sans-serif" text-anchor="middle"><path class="domain" stroke="currentColor" d="M0.5,-1239V0.5H1466.5V-1239"/><g class="tick" opacity="1" transform="translate(113.5,0)"><line stroke="currentColor" y2="-1239"/><text fill="#000" y="3" dy="1em" stroke="none" font-size="10" style="text-anchor: middle;">2026-02-22</text></g><g class="tick" opacity="1" transform="translate(244.5,0)"><line stroke="currentColor" y2="-1239"/><text fill="#000" y="3" dy="1em" stroke="none" font-size="10" style="text-anchor: middle;">2026-03-01</text></g><g class="tick" opacity="1" transform="translate(376.5,0)"><line stroke="currentColor" y2="-1239"/><text fill="#000" y="3" dy="1em" stroke="none" font-size="10" style="text-anchor: middle;">2026-03-08</text></g><g class="tick" opacity="1" transform="translate(507.5,0)"><line stroke="currentColor" y2="-1239"/><text fill="#000" y="3" dy="1em" stroke="none" font-size="10" style="text-anchor: middle;">2026-03-15</text></g><g class="tick" opacity="1" transform="translate(639.5,0)"><line stroke="currentColor" y2="-1239"/><text fill="#000" y="3" dy="1em" stroke="none" font-size="10" style="text-anchor: middle;">2026-03-22</text></g><g class="tick" opacity="1" transform="translate(771.5,0)"><line stroke="currentColor" y2="-1239"/><text fill="#000" y="3" dy="1em" stroke="none" font-size="10" style="text-anchor: middle;">2026-03-29</text></g><g class="tick" opacity="1" transform="translate(902.5,0)"><line stroke="currentColor" y2="-1239"/><text fill="#000" y="3" dy="1em" stroke="none" font-size="10" style="text-anchor: middle;">2026-04-05</text></g><g class="tick" opacity="1" transform="translate(1034.5,0)"><line stroke="currentColor" y2="-1239"/><text fill="#000" y="3" dy="1em" stroke="none" font-size="10" style="text-anchor: middle;">2026-04-12</text></g><g class="tick" opacity="1" transform="translate(1165.5,0)"><line stroke="currentColor" y2="-1239"/><text fill="#000" y="3" dy="1em" stroke="none" font-size="10" style="text-anchor: middle;">2026-04-19</text></g><g class="tick" opacity="1" transform="translate(1297.5,0)"><line stroke="currentColor" y2="-1239"/><text fill="#000" y="3" dy="1em" stroke="none" font-size="10" style="text-anchor: middle;">2026-04-26</text></g><g class="tick" opacity="1" transform="translate(1428.5,0)"><line stroke="currentColor" y2="-1239"/><text fill="#000" y="3" dy="1em" stroke="none" font-size="10" style="text-anchor: middle;">2026-05-03</text></g></g><g><rect x="0" y="48" width="1578.5" height="24" class="section section0"/><rect x="0" y="72" width="1578.5" height="24" class="section section0"/><rect x="0" y="96" width="1578.5" height="24" class="section section0"/><rect x="0" y="120" width="1578.5" height="24" class="section section1"/><rect x="0" y="144" width="1578.5" height="24" class="section section1"/><rect x="0" y="168" width="1578.5" height="24" class="section section1"/><rect x="0" y="192" width="1578.5" height="24" class="section section2"/><rect x="0" y="216" width="1578.5" height="24" class="section section2"/><rect x="0" y="240" width="1578.5" height="24" class="section section2"/><rect x="0" y="264" width="1578.5" height="24" class="section section2"/><rect x="0" y="288" width="1578.5" height="24" class="section section2"/><rect x="0" y="312" width="1578.5" height="24" class="section section2"/><rect x="0" y="336" width="1578.5" height="24" class="section section3"/><rect x="0" y="360" width="1578.5" height="24" class="section section3"/><rect x="0" y="384" width="1578.5" height="24" class="section section3"/><rect x="0" y="408" width="1578.5" height="24" class="section section3"/><rect x="0" y="432" width="1578.5" height="24" class="section section3"/><rect x="0" y="456" width="1578.5" height="24" class="section section3"/><rect x="0" y="480" width="1578.5" height="24" class="section section3"/><rect x="0" y="504" width="1578.5" height="24" class="section section0"/><rect x="0" y="528" width="1578.5" height="24" class="section section0"/><rect x="0" y="552" width="1578.5" height="24" class="section section0"/><rect x="0" y="576" width="1578.5" height="24" class="section section1"/><rect x="0" y="600" width="1578.5" height="24" class="section section1"/><rect x="0" y="624" width="1578.5" height="24" class="section section1"/><rect x="0" y="648" width="1578.5" height="24" class="section section1"/><rect x="0" y="672" width="1578.5" height="24" class="section section1"/><rect x="0" y="696" width="1578.5" height="24" class="section section1"/><rect x="0" y="720" width="1578.5" height="24" class="section section2"/><rect x="0" y="744" width="1578.5" height="24" class="section section2"/><rect x="0" y="768" width="1578.5" height="24" class="section section2"/><rect x="0" y="792" width="1578.5" height="24" class="section section2"/><rect x="0" y="816" width="1578.5" height="24" class="section section2"/><rect x="0" y="840" width="1578.5" height="24" class="section section2"/><rect x="0" y="864" width="1578.5" height="24" class="section section2"/><rect x="0" y="888" width="1578.5" height="24" class="section section3"/><rect x="0" y="912" width="1578.5" height="24" class="section section3"/><rect x="0" y="936" width="1578.5" height="24" class="section section3"/><rect x="0" y="960" width="1578.5" height="24" class="section section3"/><rect x="0" y="984" width="1578.5" height="24" class="section section3"/><rect x="0" y="1008" width="1578.5" height="24" class="section section3"/><rect x="0" y="1032" width="1578.5" height="24" class="section section3"/><rect x="0" y="1056" width="1578.5" height="24" class="section section0"/><rect x="0" y="1080" width="1578.5" height="24" class="section section0"/><rect x="0" y="1104" width="1578.5" height="24" class="section section0"/><rect x="0" y="1128" width="1578.5" height="24" class="section section0"/><rect x="0" y="1152" width="1578.5" height="24" class="section section0"/><rect x="0" y="1176" width="1578.5" height="24" class="section section0"/><rect x="0" y="1200" width="1578.5" height="24" class="section section0"/><rect x="0" y="1224" width="1578.5" height="24" class="section section1"/><rect x="0" y="1248" width="1578.5" height="24" class="section section1"/></g><g><rect id="r1" rx="3" ry="3" x="75" y="50" width="0" height="20" transform-origin="75px 60px" class="task task0"/><rect id="r1" rx="3" ry="3" x="65" y="74" width="20" height="20" transform-origin="75px 84px" class="task milestone  task0"/><rect id="r1" rx="3" ry="3" x="75" y="98" width="0" height="20" transform-origin="75px 108px" class="task task0"/><rect id="r2" rx="3" ry="3" x="207" y="122" width="0" height="20" transform-origin="207px 132px" class="task task1"/><rect id="r2" rx="3" ry="3" x="197" y="146" width="20" height="20" transform-origin="207px 156px" class="task milestone  task1"/><rect id="r2" rx="3" ry="3" x="207" y="170" width="0" height="20" transform-origin="207px 180px" class="task task1"/><rect id="r3" rx="3" ry="3" x="601" y="194" width="113" height="20" transform-origin="657.5px 204px" class="task task2"/><rect id="r3_rec" rx="3" ry="3" x="639" y="218" width="19" height="20" transform-origin="648.5px 228px" class="task task2"/><rect id="r3_ac" rx="3" ry="3" x="639" y="242" width="19" height="20" transform-origin="648.5px 252px" class="task task2"/><rect id="r3_ini" rx="3" ry="3" x="658" y="266" width="18" height="20" transform-origin="667px 276px" class="task task2"/><rect id="r3_cont" rx="3" ry="3" x="676" y="290" width="19" height="20" transform-origin="685.5px 300px" class="task task2"/><rect id="r3_fin" rx="3" ry="3" x="694.5" y="314" width="20" height="20" transform-origin="704.5px 324px" class="task milestone  task2"/><rect id="r3_dev" rx="3" ry="3" x="733" y="338" width="19" height="20" transform-origin="742.5px 348px" class="task task3"/><rect id="r4" rx="3" ry="3" x="733" y="362" width="113" height="20" transform-origin="789.5px 372px" class="task task3"/><rect id="r4_rec" rx="3" ry="3" x="770" y="386" width="19" height="20" transform-origin="779.5px 396px" class="task task3"/><rect id="r4_ac" rx="3" ry="3" x="770" y="410" width="19" height="20" transform-origin="779.5px 420px" class="task task3"/><rect id="r4_ini" rx="3" ry="3" x="789" y="434" width="19" height="20" transform-origin="798.5px 444px" class="task task3"/><rect id="r4_cont" rx="3" ry="3" x="808" y="458" width="19" height="20" transform-origin="817.5px 468px" class="task task3"/><rect id="r4_fin" rx="3" ry="3" x="826.5" y="482" width="20" height="20" transform-origin="836.5px 492px" class="task milestone  task3"/><rect id="r4_dev" rx="3" ry="3" x="864" y="506" width="0" height="20" transform-origin="864px 516px" class="task task0"/><rect id="r4_dev" rx="3" ry="3" x="864" y="530" width="19" height="20" transform-origin="873.5px 540px" class="task task0"/><rect id="r4_dev" rx="3" ry="3" x="864" y="554" width="0" height="20" transform-origin="864px 564px" class="task task0"/><rect id="r5" rx="3" ry="3" x="996" y="578" width="113" height="20" transform-origin="1052.5px 588px" class="task task1"/><rect id="r5_rec" rx="3" ry="3" x="1034" y="602" width="18" height="20" transform-origin="1043px 612px" class="task task1"/><rect id="r5_ac" rx="3" ry="3" x="1034" y="626" width="18" height="20" transform-origin="1043px 636px" class="task task1"/><rect id="r5_ini" rx="3" ry="3" x="1052" y="650" width="19" height="20" transform-origin="1061.5px 660px" class="task task1"/><rect id="r5_cont" rx="3" ry="3" x="1071" y="674" width="19" height="20" transform-origin="1080.5px 684px" class="task task1"/><rect id="r5_fin" rx="3" ry="3" x="1089.5" y="698" width="20" height="20" transform-origin="1099.5px 708px" class="task milestone  task1"/><rect id="r5_dev" rx="3" ry="3" x="1128" y="722" width="18" height="20" transform-origin="1137px 732px" class="task task2"/><rect id="r6" rx="3" ry="3" x="1128" y="746" width="112" height="20" transform-origin="1184px 756px" class="task task2"/><rect id="r6_rec" rx="3" ry="3" x="1165" y="770" width="19" height="20" transform-origin="1174.5px 780px" class="task task2"/><rect id="r6_ac" rx="3" ry="3" x="1165" y="794" width="19" height="20" transform-origin="1174.5px 804px" class="task task2"/><rect id="r6_ini" rx="3" ry="3" x="1184" y="818" width="19" height="20" transform-origin="1193.5px 828px" class="task task2"/><rect id="r6_cont" rx="3" ry="3" x="1203" y="842" width="18" height="20" transform-origin="1212px 852px" class="task task2"/><rect id="r6_fin" rx="3" ry="3" x="1220.5" y="866" width="20" height="20" transform-origin="1230.5px 876px" class="task milestone  task2"/><rect id="r6_dev" rx="3" ry="3" x="1259" y="890" width="19" height="20" transform-origin="1268.5px 900px" class="task task3"/><rect id="r7" rx="3" ry="3" x="1259" y="914" width="113" height="20" transform-origin="1315.5px 924px" class="task task3"/><rect id="r7_rec" rx="3" ry="3" x="1297" y="938" width="18" height="20" transform-origin="1306px 948px" class="task task3"/><rect id="r7_ac" rx="3" ry="3" x="1297" y="962" width="18" height="20" transform-origin="1306px 972px" class="task task3"/><rect id="r7_ini" rx="3" ry="3" x="1315" y="986" width="19" height="20" transform-origin="1324.5px 996px" class="task task3"/><rect id="r7_cont" rx="3" ry="3" x="1334" y="1010" width="19" height="20" transform-origin="1343.5px 1020px" class="task task3"/><rect id="r7_fin" rx="3" ry="3" x="1352.5" y="1034" width="20" height="20" transform-origin="1362.5px 1044px" class="task milestone  task3"/><rect id="r7_dev" rx="3" ry="3" x="1391" y="1058" width="18" height="20" transform-origin="1400px 1068px" class="task task0"/><rect id="r8" rx="3" ry="3" x="1391" y="1082" width="112" height="20" transform-origin="1447px 1092px" class="task task0"/><rect id="r8_rec" rx="3" ry="3" x="1428" y="1106" width="19" height="20" transform-origin="1437.5px 1116px" class="task task0"/><rect id="r8_ac" rx="3" ry="3" x="1428" y="1130" width="19" height="20" transform-origin="1437.5px 1140px" class="task task0"/><rect id="r8_ini" rx="3" ry="3" x="1447" y="1154" width="19" height="20" transform-origin="1456.5px 1164px" class="task task0"/><rect id="r8_cont" rx="3" ry="3" x="1466" y="1178" width="19" height="20" transform-origin="1475.5px 1188px" class="task task0"/><rect id="r8_fin" rx="3" ry="3" x="1484" y="1202" width="20" height="20" transform-origin="1494px 1212px" class="task milestone  task0"/><rect id="r8_dev" rx="3" ry="3" x="1522" y="1226" width="19" height="20" transform-origin="1531.5px 1236px" class="task task1"/><rect id="m2" rx="3" ry="3" x="1521.5" y="1250" width="20" height="20" transform-origin="1531.5px 1260px" class="task milestone  task1"/><text id="r1-text" font-size="11" x="80" y="63.5" class="taskTextOutsideRight taskTextOutside0  width-3.0625">. </text><text id="r1-text" font-size="11" x="90" y="87.5" class="taskTextOutsideRight taskTextOutside0  milestoneText width-118">Ronda 1 (CANCELLED) </text><text id="r1-text" font-size="11" x="80" y="111.5" class="taskTextOutsideRight taskTextOutside0  width-3.0625">. </text><text id="r2-text" font-size="11" x="212" y="135.5" class="taskTextOutsideRight taskTextOutside1  width-3.0625">. </text><text id="r2-text" font-size="11" x="222" y="159.5" class="taskTextOutsideRight taskTextOutside1  milestoneText width-118">Ronda 2 (CANCELLED) </text><text id="r2-text" font-size="11" x="212" y="183.5" class="taskTextOutsideRight taskTextOutside1  width-3.0625">. </text><text id="r3-text" font-size="11" x="657.5" y="207.5" class="taskText taskText2  width-41.59375">Ronda 3 </text><text id="r3_rec-text" font-size="11" x="663" y="231.5" class="taskTextOutsideRight taskTextOutside2  width-95.28369140625">Recepción Equipos</text><text id="r3_ac-text" font-size="11" x="663" y="255.5" class="taskTextOutsideRight taskTextOutside2  width-92.953125">Acondicionamiento</text><text id="r3_ini-text" font-size="11" x="681" y="279.5" class="taskTextOutsideRight taskTextOutside2  width-70.2060546875">Inicio Pruebas</text><text id="r3_cont-text" font-size="11" x="700" y="303.5" class="taskTextOutsideRight taskTextOutside2  width-108.73828125">Continuación Pruebas</text><text id="r3_fin-text" font-size="11" x="719.5" y="327.5" class="taskTextOutsideRight taskTextOutside2  milestoneText width-59.8076171875">Fin Pruebas</text><text id="r3_dev-text" font-size="11" x="757" y="351.5" class="taskTextOutsideRight taskTextOutside3  width-97.7275390625">Devolución Equipos</text><text id="r4-text" font-size="11" x="789.5" y="375.5" class="taskText taskText3  width-41.59375">Ronda 4 </text><text id="r4_rec-text" font-size="11" x="794" y="399.5" class="taskTextOutsideRight taskTextOutside3  width-95.28369140625">Recepción Equipos</text><text id="r4_ac-text" font-size="11" x="794" y="423.5" class="taskTextOutsideRight taskTextOutside3  width-92.953125">Acondicionamiento</text><text id="r4_ini-text" font-size="11" x="813" y="447.5" class="taskTextOutsideRight taskTextOutside3  width-70.2060546875">Inicio Pruebas</text><text id="r4_cont-text" font-size="11" x="832" y="471.5" class="taskTextOutsideRight taskTextOutside3  width-108.73828125">Continuación Pruebas</text><text id="r4_fin-text" font-size="11" x="851.5" y="495.5" class="taskTextOutsideRight taskTextOutside3  milestoneText width-59.8076171875">Fin Pruebas</text><text id="r4_dev-text" font-size="11" x="869" y="519.5" class="taskTextOutsideRight taskTextOutside0  width-3.0625">.</text><text id="r4_dev-text" font-size="11" x="888" y="543.5" class="taskTextOutsideRight taskTextOutside0  width-97.7275390625">Devolución Equipos</text><text id="r4_dev-text" font-size="11" x="869" y="567.5" class="taskTextOutsideRight taskTextOutside0  width-3.0625">.</text><text id="r5-text" font-size="11" x="1052.5" y="591.5" class="taskText taskText1  width-41.59375">Ronda 5 </text><text id="r5_rec-text" font-size="11" x="1057" y="615.5" class="taskTextOutsideRight taskTextOutside1  width-95.28369140625">Recepción Equipos</text><text id="r5_ac-text" font-size="11" x="1057" y="639.5" class="taskTextOutsideRight taskTextOutside1  width-92.953125">Acondicionamiento</text><text id="r5_ini-text" font-size="11" x="1076" y="663.5" class="taskTextOutsideRight taskTextOutside1  width-70.2060546875">Inicio Pruebas</text><text id="r5_cont-text" font-size="11" x="1095" y="687.5" class="taskTextOutsideRight taskTextOutside1  width-108.73828125">Continuación Pruebas</text><text id="r5_fin-text" font-size="11" x="1114.5" y="711.5" class="taskTextOutsideRight taskTextOutside1  milestoneText width-59.8076171875">Fin Pruebas</text><text id="r5_dev-text" font-size="11" x="1151" y="735.5" class="taskTextOutsideRight taskTextOutside2  width-97.7275390625">Devolución Equipos</text><text id="r6-text" font-size="11" x="1184" y="759.5" class="taskText taskText2  width-41.59375">Ronda 6 </text><text id="r6_rec-text" font-size="11" x="1189" y="783.5" class="taskTextOutsideRight taskTextOutside2  width-95.28369140625">Recepción Equipos</text><text id="r6_ac-text" font-size="11" x="1189" y="807.5" class="taskTextOutsideRight taskTextOutside2  width-92.953125">Acondicionamiento</text><text id="r6_ini-text" font-size="11" x="1208" y="831.5" class="taskTextOutsideRight taskTextOutside2  width-70.2060546875">Inicio Pruebas</text><text id="r6_cont-text" font-size="11" x="1226" y="855.5" class="taskTextOutsideRight taskTextOutside2  width-108.73828125">Continuación Pruebas</text><text id="r6_fin-text" font-size="11" x="1245.5" y="879.5" class="taskTextOutsideRight taskTextOutside2  milestoneText width-59.8076171875">Fin Pruebas</text><text id="r6_dev-text" font-size="11" x="1283" y="903.5" class="taskTextOutsideRight taskTextOutside3  width-97.7275390625">Devolución Equipos</text><text id="r7-text" font-size="11" x="1315.5" y="927.5" class="taskText taskText3  width-41.59375">Ronda 7 </text><text id="r7_rec-text" font-size="11" x="1320" y="951.5" class="taskTextOutsideRight taskTextOutside3  width-95.28369140625">Recepción Equipos</text><text id="r7_ac-text" font-size="11" x="1320" y="975.5" class="taskTextOutsideRight taskTextOutside3  width-92.953125">Acondicionamiento</text><text id="r7_ini-text" font-size="11" x="1339" y="999.5" class="taskTextOutsideRight taskTextOutside3  width-70.2060546875">Inicio Pruebas</text><text id="r7_cont-text" font-size="11" x="1358" y="1023.5" class="taskTextOutsideRight taskTextOutside3  width-108.73828125">Continuación Pruebas</text><text id="r7_fin-text" font-size="11" x="1377.5" y="1047.5" class="taskTextOutsideRight taskTextOutside3  milestoneText width-59.8076171875">Fin Pruebas</text><text id="r7_dev-text" font-size="11" x="1414" y="1071.5" class="taskTextOutsideRight taskTextOutside0  width-97.7275390625">Devolución Equipos</text><text id="r8-text" font-size="11" x="1447" y="1095.5" class="taskText taskText0  width-41.59375">Ronda 8 </text><text id="r8_rec-text" font-size="11" x="1452" y="1119.5" class="taskTextOutsideRight taskTextOutside0  width-95.28369140625">Recepción Equipos</text><text id="r8_ac-text" font-size="11" x="1452" y="1143.5" class="taskTextOutsideRight taskTextOutside0  width-92.953125">Acondicionamiento</text><text id="r8_ini-text" font-size="11" x="1471" y="1167.5" class="taskTextOutsideRight taskTextOutside0  width-70.2060546875">Inicio Pruebas</text><text id="r8_cont-text" font-size="11" x="1461" y="1191.5" class="taskTextOutsideLeft taskTextOutside0">Continuación Pruebas</text><text id="r8_fin-text" font-size="11" x="1509" y="1215.5" class="taskTextOutsideRight taskTextOutside0  milestoneText width-59.8076171875">Fin Pruebas</text><text id="r8_dev-text" font-size="11" x="1517" y="1239.5" class="taskTextOutsideLeft taskTextOutside1">Devolución Equipos</text><text id="m2-text" font-size="11" x="1516.5" y="1263.5" class="taskTextOutsideLeft taskTextOutside1  milestoneText">Fin Prueba Piloto</text></g><g><text dy="-0.5em" x="10" y="86" font-size="11" class="sectionTitle sectionTitle0"><tspan alignment-baseline="central" x="10">Semana 1 </tspan><tspan alignment-baseline="central" x="10" dy="1em"> Feb 16-21</tspan></text><text dy="-0.5em" x="10" y="158" font-size="11" class="sectionTitle sectionTitle1"><tspan alignment-baseline="central" x="10">Semana 2 </tspan><tspan alignment-baseline="central" x="10" dy="1em"> Feb 23-28</tspan></text><text dy="-1em" x="10" y="266" font-size="11" class="sectionTitle sectionTitle2"><tspan alignment-baseline="central" x="10">Ronda 3 </tspan><tspan alignment-baseline="central" x="10" dy="1em"> Semana 5 </tspan><tspan alignment-baseline="central" x="10" dy="1em"> Mar 16-21</tspan></text><text dy="-1em" x="10" y="422" font-size="11" class="sectionTitle sectionTitle3"><tspan alignment-baseline="central" x="10">Ronda 4 </tspan><tspan alignment-baseline="central" x="10" dy="1em"> Semana 6 </tspan><tspan alignment-baseline="central" x="10" dy="1em"> Mar 23-28</tspan></text><text dy="-0.5em" x="10" y="542" font-size="11" class="sectionTitle sectionTitle0"><tspan alignment-baseline="central" x="10">Semana 7 </tspan><tspan alignment-baseline="central" x="10" dy="1em"> Mar 30 - Abr 4</tspan></text><text dy="-1em" x="10" y="650" font-size="11" class="sectionTitle sectionTitle1"><tspan alignment-baseline="central" x="10">Ronda 5 </tspan><tspan alignment-baseline="central" x="10" dy="1em"> Semana 8 </tspan><tspan alignment-baseline="central" x="10" dy="1em"> Abr 6-11</tspan></text><text dy="-1em" x="10" y="806" font-size="11" class="sectionTitle sectionTitle2"><tspan alignment-baseline="central" x="10">Ronda 6 </tspan><tspan alignment-baseline="central" x="10" dy="1em"> Semana 9 </tspan><tspan alignment-baseline="central" x="10" dy="1em"> Abr 13-18</tspan></text><text dy="-1em" x="10" y="974" font-size="11" class="sectionTitle sectionTitle3"><tspan alignment-baseline="central" x="10">Ronda 7 </tspan><tspan alignment-baseline="central" x="10" dy="1em"> Semana 10 </tspan><tspan alignment-baseline="central" x="10" dy="1em"> Abr 20-25</tspan></text><text dy="-1em" x="10" y="1142" font-size="11" class="sectionTitle sectionTitle0"><tspan alignment-baseline="central" x="10">Ronda 8 </tspan><tspan alignment-baseline="central" x="10" dy="1em"> Semana 11 </tspan><tspan alignment-baseline="central" x="10" dy="1em"> Abr 27 - May 2</tspan></text><text dy="-0.5em" x="10" y="1250" font-size="11" class="sectionTitle sectionTitle1"><tspan alignment-baseline="central" x="10">Semana 12 </tspan><tspan alignment-baseline="central" x="10" dy="1em"> May 4-9</tspan></text></g><g class="today"><line x1="-65" x2="-65" y1="25" y2="1299" class="today"/></g><text x="808" y="25" class="titleText">Programación Pruebas Piloto EA - Gases Contaminantes Criterio</text></svg>